<?xml version="1.0" encoding="UTF-8"?>
<!DOCTYPE svg PUBLIC "-//W3C//DTD SVG 1.1//EN" "http://www.w3.org/Graphics/SVG/1.1/DTD/svg11.dtd">
<!-- Creator: CorelDRAW 2020 (64-Bit) -->
<svg xmlns="http://www.w3.org/2000/svg" xml:space="preserve" width="430mm" height="430mm" version="1.1" style="shape-rendering:geometricPrecision; text-rendering:geometricPrecision; image-rendering:optimizeQuality; fill-rule:evenodd; clip-rule:evenodd"
viewBox="0 0 43000 43000"
 xmlns:xlink="http://www.w3.org/1999/xlink"
 xmlns:xodm="http://www.corel.com/coreldraw/odm/2003">
 <defs>
  <style type="text/css">
   <![CDATA[
    .fil1 {fill:#00CCFF}
    .fil0 {fill:#4577FF}
   ]]>
  </style>
 </defs>
 <g id="Capa_x0020_1">
  <metadata id="CorelCorpID_0Corel-Layer"/>
  <g id="_2275435022208">
   <path class="fil0" d="M27499.02 29042.1l-0.02 0.01c-489.17,241.83 -1087.27,39.46 -1329.11,-449.71l-2450.04 -4955.89c-1434.92,1.03 -2985.63,-0.55 -4652.12,-4.75 583.24,-894.61 741.01,-1136.63 922.74,-1415.37 2543.44,36.11 3057.12,185.6 2430.95,-1206.32l-1151.61 -2329.45 0 -1469.7 1487.01 0 5191.91 10502.07c241.83,489.18 39.46,1087.28 -449.71,1329.11z"/>
   <rect class="fil1" transform="matrix(0.766172 0.499506 0.640892 -0.98304 13546.3 28467.4)" width="2169.58" height="14922.5" rx="1084.79" ry="1084.79"/>
   <path class="fil1" d="M10859.64 28052.01c-1807.8,-1932.12 -2927.5,-3208.6 -4595.18,-4911.19 -1049.18,-1121.33 -1097.42,-1754.4 0,-2927.31 1238.36,-1323.53 2811.66,-2964.04 4592.82,-4908.68 1258.1,-1344.61 2827.72,-94.9 1236.13,1606.18 -1376.54,1382.76 -2560.09,2858.46 -3502.42,3743.27 -752.71,804.47 -656.45,1400.12 -48.67,1993.74 1227.79,1312.26 2025.77,2165.09 3524.99,3767.43 1284.45,1372.78 110.28,3015.11 -1207.67,1636.56z"/>
   <path class="fil1" d="M31897.93 27893.26c1807.8,-1932.12 2927.5,-3208.6 4595.18,-4911.19 1049.18,-1121.33 1097.42,-1754.4 0,-2927.31 -1238.36,-1323.53 -2811.66,-2964.04 -4592.82,-4908.68 -1258.1,-1344.61 -2827.72,-94.9 -1236.13,1606.18 1376.54,1382.76 2560.09,2858.46 3502.42,3743.27 752.71,804.47 656.45,1400.12 48.67,1993.74 -1227.79,1312.26 -2025.77,2165.09 -3524.99,3767.43 -1284.45,1372.78 -110.28,3015.11 1207.67,1636.56z"/>
   <path class="fil0" d="M9342.89 37648.97l1367.71 -2101.08c7575.09,5547.26 17744.54,4684.86 24009.24,-2547.34l25.23 17.25c7242.07,-8630.61 4592.1,-21222.66 -4542.71,-26459.27 480.74,-737.39 936.39,-1436.3 1366.95,-2096.72 10395.14,6282.84 13328.33,20182.41 4990.79,30247.25 -27.69,33.66 -55.09,67.56 -82.99,101.05 -16.52,20.22 -32.82,40.52 -49.76,60.6l-1.02 -0.7c-6051.76,7217 -18135.24,9452.6 -27083.44,2778.96z"/>
   <path class="fil0" d="M5095.9 10063.93c5612.43,-7752.73 15525.45,-10512.33 24710.94,-6532.14 -392.71,602.37 -853.26,1308.79 -1381.65,2119.26 -7655.07,-3326.46 -16567.51,-948.59 -21445.65,6075.27l-0.32 -0.21c-4111.93,5860.96 -4845.7,15352.31 2218.09,22512.74 -521.5,799.91 -984.07,1509.44 -1387.72,2128.57 -8496.4,-8002.73 -7694.01,-19616.31 -2714.59,-26304.11l0.9 0.62z"/>
  </g>
 </g>
</svg>
